<svg id="Capa_1" data-name="Capa 1" xmlns="http://www.w3.org/2000/svg" width="98.81" height="84.46" viewBox="0 0 98.81 84.46"><rect y="18.79" width="98.81" height="33.3" style="fill:#fff"/><rect y="56.17" width="98.81" height="28.3" style="fill:#fff"/><rect width="37.61" height="14.87" style="fill:#fff"/><path d="M87.18,46.8h8.49L86.78,35.18,95.27,26H87.51l-6.94,7.53V26h-7V46.53h7v-5L82,39.79Zm-24.94.36a12.72,12.72,0,0,0,5.39-1.09A9.69,9.69,0,0,0,71.55,43l-4.41-3.94A5.69,5.69,0,0,1,62.6,41.5a4.6,4.6,0,0,1-3.52-1.41,5.27,5.27,0,0,1-1.32-3.79,5.28,5.28,0,0,1,1.32-3.78A4.57,4.57,0,0,1,62.6,31.1a5.75,5.75,0,0,1,4.54,2.44l4.41-3.95a9.43,9.43,0,0,0-3.92-3.06,13.25,13.25,0,0,0-5.39-1.09,12.46,12.46,0,0,0-5.92,1.39,10.31,10.31,0,0,0-4.12,3.84,10.82,10.82,0,0,0-1.51,5.6,10.68,10.68,0,0,0,1.51,5.59,10.27,10.27,0,0,0,4.12,3.85,11.83,11.83,0,0,0,5.92,1.45m-26.13-9,2-5.2,2,5.2Zm7.18,8.35h7.23L41.57,26H34.76L25.81,46.53H33L34.3,43h7.64ZM17.46,26v7.27H11V26H4V46.53h7V39h6.49V46.8h7V26Z" transform="translate(-0.45 -0.7)"/><path d="M29.57,5.5V7.15l3,1-3,1V10.8l5-1.81V7.28Zm-1,0-5,1.81V9l5,1.81V9.19l-3-1,3-1Zm-10.3,7h1.94L23.38,3.4H21.44Zm-5.2-7V7.15l3,1-3,1V10.8L18,9V7.28ZM7.91,8.76H7l.13-1.25h1ZM11,7.51V6.06H9.79L10,4.81H8.41L8.24,6.06h-1l.16-1.25H5.91L5.74,6.06H4.36V7.51H5.51L5.38,8.76H4v1.45H5.15L5,11.46H6.57l.16-1.25h.95l-.16,1.25H9.07l.16-1.25h1.35V8.76H9.46l.13-1.25Z" transform="translate(-0.45 -0.7)"/><path d="M88.36,79.44a10.62,10.62,0,0,0,4-.73,5.56,5.56,0,0,0,2.5-1.9,4.64,4.64,0,0,0,.86-2.7,3.82,3.82,0,0,0-.92-2.73,5.53,5.53,0,0,0-2.18-1.45,19.72,19.72,0,0,0-3.06-.79,15.28,15.28,0,0,1-2-.53c-.42-.16-.62-.39-.62-.72q0-1,2.07-1a9.78,9.78,0,0,1,4.41,1.19L95,64.2a9.68,9.68,0,0,0-2.79-1A15.23,15.23,0,0,0,89,62.82a10.65,10.65,0,0,0-4,.69,5.63,5.63,0,0,0-2.5,1.91,4.77,4.77,0,0,0-.85,2.73,3.8,3.8,0,0,0,.92,2.73,5,5,0,0,0,2.14,1.45,19.43,19.43,0,0,0,3.06.82,14.34,14.34,0,0,1,2,.53.85.85,0,0,1,.62.76.65.65,0,0,1-.46.62,4.45,4.45,0,0,1-1.58.2,9.8,9.8,0,0,1-2.69-.4,11.37,11.37,0,0,1-2.54-1l-1.74,3.92a10.08,10.08,0,0,0,3.09,1.18,12.84,12.84,0,0,0,3.88.53" transform="translate(-0.45 -0.7)"/><path d="M73.46,79.44a10.62,10.62,0,0,0,4.05-.73,5.61,5.61,0,0,0,2.5-1.9,4.63,4.63,0,0,0,.85-2.7,3.78,3.78,0,0,0-.92-2.73,5.57,5.57,0,0,0-2.17-1.45,19.72,19.72,0,0,0-3.06-.79,15.28,15.28,0,0,1-2-.53c-.43-.16-.63-.39-.63-.72,0-.66.69-1,2.08-1a9.78,9.78,0,0,1,4.41,1.19l1.61-3.89a9.74,9.74,0,0,0-2.8-1,15.13,15.13,0,0,0-3.22-.36,10.65,10.65,0,0,0-4.05.69,5.57,5.57,0,0,0-2.5,1.91,4.78,4.78,0,0,0-.86,2.73,3.84,3.84,0,0,0,.92,2.73,5.07,5.07,0,0,0,2.14,1.45,20,20,0,0,0,3.06.82,13.61,13.61,0,0,1,2,.53.85.85,0,0,1,.63.76.67.67,0,0,1-.46.62,4.52,4.52,0,0,1-1.58.2,9.82,9.82,0,0,1-2.7-.4,11.29,11.29,0,0,1-2.53-1l-1.75,3.92a10,10,0,0,0,3.1,1.18,12.67,12.67,0,0,0,3.88.53" transform="translate(-0.45 -0.7)"/><path d="M56.61,79.44a9.57,9.57,0,0,0,4.61-1.09,7.73,7.73,0,0,0,3.19-3,8.52,8.52,0,0,0,0-8.55,8.24,8.24,0,0,0-3.19-3,10.36,10.36,0,0,0-9.21,0,7.78,7.78,0,0,0-3.2,3A8.14,8.14,0,0,0,52,78.35a9.18,9.18,0,0,0,4.6,1.09" transform="translate(-0.45 -0.7)"/><path d="M56.61,75.09a3.41,3.41,0,0,1-3.09-1.87,5,5,0,0,1,0-4.21,3.44,3.44,0,0,1,3.09-1.88,3.47,3.47,0,0,1,1.81.5A3.35,3.35,0,0,1,59.7,69a4.95,4.95,0,0,1,0,4.21,3.41,3.41,0,0,1-1.28,1.38,3.21,3.21,0,0,1-1.81.49" transform="translate(-0.45 -0.7)" style="fill:#fffdfd"/><path d="M43.52,70.85a4.18,4.18,0,0,0,1.64-1.41,3.82,3.82,0,0,0,.56-2,3.5,3.5,0,0,0-1.64-3,8.41,8.41,0,0,0-4.81-1.15H30.78V79.14h8.95a9,9,0,0,0,5-1.15,3.67,3.67,0,0,0,1.75-3.26,4.13,4.13,0,0,0-.76-2.43,5.23,5.23,0,0,0-2.2-1.45" transform="translate(-0.45 -0.7)"/><path d="M39,75.26H36v-2.5h3.19c1.15,0,1.78.39,1.78,1.22s-.6,1.25-1.78,1.25" transform="translate(-0.45 -0.7)" style="fill:#fffdfd"/><path d="M38.35,67c1.12,0,1.68.4,1.68,1.15s-.56,1.15-1.68,1.15H36V67h2.4Z" transform="translate(-0.45 -0.7)" style="fill:#fffdfd"/><polygon points="16.95 78.28 22.47 78.28 15.63 62.58 10.43 62.58 3.55 78.28 9.02 78.28 10.07 75.58 15.93 75.58 16.95 78.28"/><polygon points="11.45 71.86 13 67.88 14.54 71.86 11.45 71.86" style="fill:#fffdfd"/></svg>